<?xml version="1.0" standalone="no"?>
<!DOCTYPE svg PUBLIC "-//W3C//DTD SVG 20010904//EN"
 "http://www.w3.org/TR/2001/REC-SVG-20010904/DTD/svg10.dtd">
<svg version="1.0" xmlns="http://www.w3.org/2000/svg"
 width="75.000000pt" height="75.000000pt" viewBox="0 0 75.000000 75.000000"
 preserveAspectRatio="xMidYMid meet">
<metadata>
Created by potrace 1.14, written by Peter Selinger 2001-2017
</metadata>
<g transform="translate(0.000000,75.000000) scale(0.100000,-0.100000)"
fill="#000000" stroke="none">
<path d="M262 705 c-23 -10 -32 -20 -32 -38 0 -36 -39 -67 -77 -61 -25 4 -35
0 -52 -22 -12 -15 -21 -29 -21 -33 1 -20 23 -33 61 -36 37 -2 49 2 76 28 83
78 221 80 307 4 36 -33 38 -33 122 -28 23 2 24 33 3 63 -18 25 -27 29 -51 24
-36 -7 -78 18 -78 48 0 30 -10 41 -47 54 -27 9 -34 8 -52 -12 -24 -25 -81 -30
-89 -8 -8 24 -36 31 -70 17z"/>
<path d="M384 493 c-74 -9 -99 -105 -36 -137 23 -12 86 -22 102 -16 3 1 13 3
23 5 32 6 57 36 57 70 0 57 -58 88 -146 78z m92 -50 c30 -30 11 -63 -37 -64
-57 -2 -68 0 -78 19 -17 33 13 62 60 60 23 -1 47 -8 55 -15z"/>
<path d="M10 415 c0 -74 1 -76 23 -73 20 3 22 8 22 73 0 65 -2 70 -22 73 -22
3 -23 1 -23 -73z"/>
<path d="M107 475 c-8 -20 -1 -22 66 -20 36 1 61 -3 68 -11 16 -19 -16 -30
-86 -29 -53 1 -61 -1 -66 -19 -8 -31 1 -56 21 -56 10 0 20 8 23 19 7 29 62 33
88 5 11 -12 31 -24 44 -27 26 -4 29 8 8 31 -16 16 -17 32 -3 32 21 0 28 44 11
67 -14 20 -25 22 -92 23 -59 0 -78 -4 -82 -15z"/>
<path d="M558 478 c-3 -11 -3 -109 1 -128 1 -3 10 -6 21 -7 17 -2 20 4 20 38
0 21 3 39 8 39 4 0 27 -18 50 -40 68 -62 81 -53 80 58 0 44 -3 52 -19 52 -11
0 -20 -7 -20 -15 -1 -8 -2 -24 -3 -34 -2 -33 -10 -31 -56 9 -46 40 -75 50 -82
28z"/>
<path d="M45 302 c-5 -11 -9 -13 -12 -4 -7 18 -23 14 -23 -6 0 -26 55 -26 57
0 2 24 -13 32 -22 10z"/>
<path d="M570 295 c0 -14 6 -25 13 -25 17 0 17 38 0 44 -8 4 -13 -3 -13 -19z"/>
<path d="M701 312 c0 -4 4 -16 8 -26 7 -19 8 -19 13 1 4 14 0 24 -8 27 -8 3
-14 2 -13 -2z"/>
<path d="M170 295 c-7 -8 -11 -15 -9 -16 49 -10 50 -9 39 11 -13 24 -14 24
-30 5z"/>
<path d="M300 292 c0 -11 7 -18 19 -18 13 0 19 7 18 18 -1 10 -9 18 -19 18
-11 0 -18 -7 -18 -18z"/>
<path d="M433 294 c0 -7 8 -15 18 -17 12 -3 17 1 16 13 -1 20 -34 24 -34 4z"/>
<path d="M88 227 c-16 -31 20 -72 63 -72 47 0 70 -16 78 -56 6 -29 12 -35 42
-43 31 -8 39 -6 58 13 27 27 69 25 92 -4 14 -16 22 -18 54 -10 32 8 39 15 42
40 5 39 39 65 81 62 26 -2 36 4 52 28 26 41 13 57 -44 60 -37 1 -52 -3 -74
-23 -91 -81 -223 -84 -307 -6 -38 36 -120 42 -137 11z"/>
</g>
</svg>
